<mxfile host="app.diagrams.net" agent="Mozilla/5.0 (Windows NT 10.0; Win64; x64) AppleWebKit/537.36 (KHTML, like Gecko) Chrome/138.0.0.0 Safari/537.36" version="27.0.6">
  <diagram name="Page-1" id="vI3AUKaJ-KvVPcudFKGl">
    <mxGraphModel dx="703" dy="416" grid="0" gridSize="10" guides="1" tooltips="1" connect="1" arrows="1" fold="1" page="1" pageScale="1" pageWidth="1000" pageHeight="1000" math="0" shadow="0">
      <root>
        <mxCell id="0" />
        <mxCell id="1" parent="0" />
        <mxCell id="ZulVoOLhEj6P1UFK9tHj-1" value="5.1" style="swimlane;html=1;startSize=20;fontStyle=1;collapsible=0;horizontal=1;swimlaneLine=1;strokeWidth=2;swimlaneFillColor=#ffffff;whiteSpace=wrap;rounded=1;fontSize=15;" vertex="1" parent="1">
          <mxGeometry x="352" y="176" width="194" height="90" as="geometry" />
        </mxCell>
        <mxCell id="ZulVoOLhEj6P1UFK9tHj-5" value="请求AI问答" style="text;html=1;align=center;verticalAlign=middle;whiteSpace=wrap;rounded=0;fontSize=15;fontStyle=1" vertex="1" parent="ZulVoOLhEj6P1UFK9tHj-1">
          <mxGeometry x="52" y="36" width="90" height="30" as="geometry" />
        </mxCell>
        <mxCell id="ZulVoOLhEj6P1UFK9tHj-3" value="&amp;nbsp; &amp;nbsp; &amp;nbsp; &amp;nbsp; &amp;nbsp; 语料库" style="html=1;dashed=0;whiteSpace=wrap;shape=mxgraph.dfd.dataStoreID;align=left;spacingLeft=3;points=[[0,0],[0.5,0],[1,0],[0,0.5],[1,0.5],[0,1],[0.5,1],[1,1]];" vertex="1" parent="1">
          <mxGeometry x="678" y="206" width="100" height="30" as="geometry" />
        </mxCell>
        <mxCell id="ZulVoOLhEj6P1UFK9tHj-4" value="铁路管理局" style="rounded=0;whiteSpace=wrap;html=1;" vertex="1" parent="1">
          <mxGeometry x="196" y="277" width="60" height="60" as="geometry" />
        </mxCell>
        <mxCell id="ZulVoOLhEj6P1UFK9tHj-6" value="5.2" style="swimlane;html=1;startSize=20;fontStyle=1;collapsible=0;horizontal=1;swimlaneLine=1;strokeWidth=2;swimlaneFillColor=#ffffff;whiteSpace=wrap;rounded=1;fontSize=15;" vertex="1" parent="1">
          <mxGeometry x="352" y="316" width="194" height="90" as="geometry" />
        </mxCell>
        <mxCell id="ZulVoOLhEj6P1UFK9tHj-7" value="生成报告" style="text;html=1;align=center;verticalAlign=middle;whiteSpace=wrap;rounded=0;fontSize=15;fontStyle=1" vertex="1" parent="ZulVoOLhEj6P1UFK9tHj-6">
          <mxGeometry x="52" y="36" width="90" height="30" as="geometry" />
        </mxCell>
        <mxCell id="ZulVoOLhEj6P1UFK9tHj-20" value="" style="edgeStyle=segmentEdgeStyle;endArrow=classic;html=1;curved=0;rounded=0;endSize=8;startSize=8;exitX=0.5;exitY=0;exitDx=0;exitDy=0;entryX=0;entryY=0.25;entryDx=0;entryDy=0;" edge="1" parent="1" source="ZulVoOLhEj6P1UFK9tHj-4" target="ZulVoOLhEj6P1UFK9tHj-1">
          <mxGeometry width="50" height="50" relative="1" as="geometry">
            <mxPoint x="304" y="304" as="sourcePoint" />
            <mxPoint x="354" y="254" as="targetPoint" />
            <Array as="points">
              <mxPoint x="222" y="199" />
            </Array>
          </mxGeometry>
        </mxCell>
        <mxCell id="ZulVoOLhEj6P1UFK9tHj-28" value="向AI提问" style="edgeLabel;html=1;align=center;verticalAlign=middle;resizable=0;points=[];" vertex="1" connectable="0" parent="ZulVoOLhEj6P1UFK9tHj-20">
          <mxGeometry x="0.3814" y="1" relative="1" as="geometry">
            <mxPoint as="offset" />
          </mxGeometry>
        </mxCell>
        <mxCell id="ZulVoOLhEj6P1UFK9tHj-24" value="" style="edgeStyle=segmentEdgeStyle;endArrow=classic;html=1;curved=0;rounded=0;endSize=8;startSize=8;exitX=0;exitY=0.5;exitDx=0;exitDy=0;entryX=0.685;entryY=-0.001;entryDx=0;entryDy=0;entryPerimeter=0;" edge="1" parent="1" source="ZulVoOLhEj6P1UFK9tHj-1" target="ZulVoOLhEj6P1UFK9tHj-4">
          <mxGeometry width="50" height="50" relative="1" as="geometry">
            <mxPoint x="248" y="330" as="sourcePoint" />
            <mxPoint x="257" y="270" as="targetPoint" />
            <Array as="points">
              <mxPoint x="237" y="221" />
              <mxPoint x="237" y="270" />
            </Array>
          </mxGeometry>
        </mxCell>
        <mxCell id="ZulVoOLhEj6P1UFK9tHj-25" value="返回智能回答" style="edgeLabel;html=1;align=center;verticalAlign=middle;resizable=0;points=[];" vertex="1" connectable="0" parent="ZulVoOLhEj6P1UFK9tHj-24">
          <mxGeometry x="0.3149" y="2" relative="1" as="geometry">
            <mxPoint x="49" y="-2" as="offset" />
          </mxGeometry>
        </mxCell>
        <mxCell id="ZulVoOLhEj6P1UFK9tHj-29" value="" style="endArrow=classic;html=1;rounded=0;exitX=0;exitY=0.5;exitDx=0;exitDy=0;entryX=1;entryY=0.5;entryDx=0;entryDy=0;" edge="1" parent="1" source="ZulVoOLhEj6P1UFK9tHj-3" target="ZulVoOLhEj6P1UFK9tHj-1">
          <mxGeometry width="50" height="50" relative="1" as="geometry">
            <mxPoint x="475" y="422" as="sourcePoint" />
            <mxPoint x="525" y="372" as="targetPoint" />
          </mxGeometry>
        </mxCell>
        <mxCell id="ZulVoOLhEj6P1UFK9tHj-31" value="答案" style="edgeLabel;html=1;align=center;verticalAlign=middle;resizable=0;points=[];" vertex="1" connectable="0" parent="ZulVoOLhEj6P1UFK9tHj-29">
          <mxGeometry x="0.1823" y="1" relative="1" as="geometry">
            <mxPoint as="offset" />
          </mxGeometry>
        </mxCell>
        <mxCell id="ZulVoOLhEj6P1UFK9tHj-32" value="系统管理与分析子系统" style="rounded=0;whiteSpace=wrap;html=1;" vertex="1" parent="1">
          <mxGeometry x="699" y="93" width="60" height="60" as="geometry" />
        </mxCell>
        <mxCell id="ZulVoOLhEj6P1UFK9tHj-33" value="" style="endArrow=classic;html=1;rounded=0;entryX=0.515;entryY=0.008;entryDx=0;entryDy=0;entryPerimeter=0;exitX=0.5;exitY=1;exitDx=0;exitDy=0;" edge="1" parent="1" source="ZulVoOLhEj6P1UFK9tHj-32" target="ZulVoOLhEj6P1UFK9tHj-3">
          <mxGeometry width="50" height="50" relative="1" as="geometry">
            <mxPoint x="728" y="152" as="sourcePoint" />
            <mxPoint x="729" y="205" as="targetPoint" />
          </mxGeometry>
        </mxCell>
        <mxCell id="ZulVoOLhEj6P1UFK9tHj-34" value="语料" style="edgeLabel;html=1;align=center;verticalAlign=middle;resizable=0;points=[];" vertex="1" connectable="0" parent="ZulVoOLhEj6P1UFK9tHj-33">
          <mxGeometry x="0.169" relative="1" as="geometry">
            <mxPoint y="-8" as="offset" />
          </mxGeometry>
        </mxCell>
        <mxCell id="ZulVoOLhEj6P1UFK9tHj-35" value="&amp;nbsp; &amp;nbsp; &amp;nbsp; &amp;nbsp; &amp;nbsp; 报告" style="html=1;dashed=0;whiteSpace=wrap;shape=mxgraph.dfd.dataStoreID;align=left;spacingLeft=3;points=[[0,0],[0.5,0],[1,0],[0,0.5],[1,0.5],[0,1],[0.5,1],[1,1]];" vertex="1" parent="1">
          <mxGeometry x="679" y="350" width="100" height="30" as="geometry" />
        </mxCell>
        <mxCell id="ZulVoOLhEj6P1UFK9tHj-36" value="" style="edgeStyle=segmentEdgeStyle;endArrow=classic;html=1;curved=0;rounded=0;endSize=8;startSize=8;entryX=0.75;entryY=1;entryDx=0;entryDy=0;" edge="1" parent="1" target="ZulVoOLhEj6P1UFK9tHj-4">
          <mxGeometry width="50" height="50" relative="1" as="geometry">
            <mxPoint x="352" y="366" as="sourcePoint" />
            <mxPoint x="482" y="288" as="targetPoint" />
            <Array as="points">
              <mxPoint x="352" y="366" />
              <mxPoint x="262" y="366" />
              <mxPoint x="241" y="365" />
            </Array>
          </mxGeometry>
        </mxCell>
        <mxCell id="ZulVoOLhEj6P1UFK9tHj-37" value="返回报告" style="edgeLabel;html=1;align=center;verticalAlign=middle;resizable=0;points=[];" vertex="1" connectable="0" parent="ZulVoOLhEj6P1UFK9tHj-36">
          <mxGeometry x="0.3814" y="1" relative="1" as="geometry">
            <mxPoint x="35" as="offset" />
          </mxGeometry>
        </mxCell>
        <mxCell id="ZulVoOLhEj6P1UFK9tHj-38" value="" style="edgeStyle=segmentEdgeStyle;endArrow=classic;html=1;curved=0;rounded=0;endSize=8;startSize=8;entryX=0;entryY=0.75;entryDx=0;entryDy=0;exitX=0.434;exitY=1.005;exitDx=0;exitDy=0;exitPerimeter=0;" edge="1" parent="1" source="ZulVoOLhEj6P1UFK9tHj-4" target="ZulVoOLhEj6P1UFK9tHj-6">
          <mxGeometry width="50" height="50" relative="1" as="geometry">
            <mxPoint x="279" y="389" as="sourcePoint" />
            <mxPoint x="367" y="366" as="targetPoint" />
            <Array as="points">
              <mxPoint x="222" y="383" />
            </Array>
          </mxGeometry>
        </mxCell>
        <mxCell id="ZulVoOLhEj6P1UFK9tHj-39" value="请求报告" style="edgeLabel;html=1;align=center;verticalAlign=middle;resizable=0;points=[];" vertex="1" connectable="0" parent="ZulVoOLhEj6P1UFK9tHj-38">
          <mxGeometry x="0.3149" y="2" relative="1" as="geometry">
            <mxPoint x="-8" y="1" as="offset" />
          </mxGeometry>
        </mxCell>
        <mxCell id="ZulVoOLhEj6P1UFK9tHj-40" value="" style="endArrow=classic;html=1;rounded=0;exitX=0;exitY=0.5;exitDx=0;exitDy=0;entryX=1;entryY=0.5;entryDx=0;entryDy=0;" edge="1" parent="1">
          <mxGeometry width="50" height="50" relative="1" as="geometry">
            <mxPoint x="679" y="364.71" as="sourcePoint" />
            <mxPoint x="547" y="364.71" as="targetPoint" />
          </mxGeometry>
        </mxCell>
        <mxCell id="ZulVoOLhEj6P1UFK9tHj-41" value="报告" style="edgeLabel;html=1;align=center;verticalAlign=middle;resizable=0;points=[];" vertex="1" connectable="0" parent="ZulVoOLhEj6P1UFK9tHj-40">
          <mxGeometry x="0.1823" y="1" relative="1" as="geometry">
            <mxPoint as="offset" />
          </mxGeometry>
        </mxCell>
      </root>
    </mxGraphModel>
  </diagram>
</mxfile>
